<svg xmlns="http://www.w3.org/2000/svg" viewBox="0 0 200 50" style="image-rendering: pixelated;">
  <!-- Frame 1: Idle (0-50px) -->
  <g id="frame-idle">
    <rect x="5" y="5" width="40" height="40" rx="2" fill="#f5576c"/>
    <rect x="12" y="0" width="26" height="20" rx="2" fill="#f5576c"/>
    <circle cx="20" cy="10" r="2" fill="#ffffff"/>
    <circle cx="30" cy="10" r="2" fill="#ffffff"/>
    <circle cx="20" cy="10" r="1" fill="#f5576c"/>
    <circle cx="30" cy="10" r="1" fill="#f5576c"/>
    <rect x="10" y="20" width="30" height="20" rx="1" fill="#ffffff" opacity="0.9"/>
    <line x1="10" y1="26" x2="40" y2="26" stroke="#ffffff" stroke-width="1"/>
    <line x1="15" y1="20" x2="15" y2="40" stroke="#ffffff" stroke-width="1"/>
    <line x1="20" y1="20" x2="20" y2="40" stroke="#ffffff" stroke-width="1"/>
    <line x1="25" y1="20" x2="25" y2="40" stroke="#ffffff" stroke-width="1"/>
    <circle cx="15" cy="32" r="1" fill="#ffffff"/>
    <circle cx="20" cy="32" r="1" fill="#ffffff"/>
    <circle cx="25" cy="35" r="1" fill="#ffffff"/>
    <rect x="0" y="18" width="6" height="22" rx="1" fill="#f5576c"/>
    <rect x="44" y="18" width="6" height="22" rx="1" fill="#f5576c"/>
    <rect x="12" y="40" width="10" height="10" rx="1" fill="#f5576c"/>
    <rect x="28" y="40" width="10" height="10" rx="1" fill="#f5576c"/>
  </g>
  
  <!-- Frame 2: Walk 1 (50-100px) -->
  <g id="frame-walk1" transform="translate(50, 0)">
    <rect x="5" y="5" width="40" height="40" rx="2" fill="#f5576c"/>
    <rect x="12" y="0" width="26" height="20" rx="2" fill="#f5576c"/>
    <circle cx="20" cy="10" r="2" fill="#ffffff"/>
    <circle cx="30" cy="10" r="2" fill="#ffffff"/>
    <circle cx="20" cy="10" r="1" fill="#f5576c"/>
    <circle cx="30" cy="10" r="1" fill="#f5576c"/>
    <rect x="10" y="20" width="30" height="20" rx="1" fill="#ffffff" opacity="0.9"/>
    <line x1="10" y1="26" x2="40" y2="26" stroke="#ffffff" stroke-width="1"/>
    <line x1="15" y1="20" x2="15" y2="40" stroke="#ffffff" stroke-width="1"/>
    <line x1="20" y1="20" x2="20" y2="40" stroke="#ffffff" stroke-width="1"/>
    <line x1="25" y1="20" x2="25" y2="40" stroke="#ffffff" stroke-width="1"/>
    <circle cx="15" cy="32" r="1" fill="#ffffff"/>
    <circle cx="20" cy="32" r="1" fill="#ffffff"/>
    <circle cx="25" cy="35" r="1" fill="#ffffff"/>
    <rect x="0" y="18" width="6" height="22" rx="1" fill="#f5576c" transform="rotate(-8 3 29)"/>
    <rect x="44" y="18" width="6" height="22" rx="1" fill="#f5576c" transform="rotate(8 47 29)"/>
    <rect x="12" y="40" width="10" height="10" rx="1" fill="#f5576c"/>
    <rect x="28" y="40" width="10" height="10" rx="1" fill="#f5576c"/>
  </g>
  
  <!-- Frame 3: Walk 2 (100-150px) -->
  <g id="frame-walk2" transform="translate(100, 0)">
    <rect x="5" y="3" width="40" height="40" rx="2" fill="#f5576c"/>
    <rect x="12" y="0" width="26" height="20" rx="2" fill="#f5576c"/>
    <circle cx="20" cy="10" r="2" fill="#ffffff"/>
    <circle cx="30" cy="10" r="2" fill="#ffffff"/>
    <circle cx="20" cy="10" r="1" fill="#f5576c"/>
    <circle cx="30" cy="10" r="1" fill="#f5576c"/>
    <rect x="10" y="20" width="30" height="20" rx="1" fill="#ffffff" opacity="0.9"/>
    <line x1="10" y1="26" x2="40" y2="26" stroke="#ffffff" stroke-width="1"/>
    <line x1="15" y1="20" x2="15" y2="40" stroke="#ffffff" stroke-width="1"/>
    <line x1="20" y1="20" x2="20" y2="40" stroke="#ffffff" stroke-width="1"/>
    <line x1="25" y1="20" x2="25" y2="40" stroke="#ffffff" stroke-width="1"/>
    <circle cx="15" cy="32" r="1" fill="#ffffff"/>
    <circle cx="20" cy="32" r="1" fill="#ffffff"/>
    <circle cx="25" cy="35" r="1" fill="#ffffff"/>
    <rect x="0" y="18" width="6" height="22" rx="1" fill="#f5576c" transform="rotate(8 3 29)"/>
    <rect x="44" y="18" width="6" height="22" rx="1" fill="#f5576c" transform="rotate(-8 47 29)"/>
    <rect x="12" y="40" width="10" height="10" rx="1" fill="#f5576c"/>
    <rect x="28" y="40" width="10" height="10" rx="1" fill="#f5576c"/>
  </g>
  
  <!-- Frame 4: Idle 2 (150-200px) -->
  <g id="frame-idle2" transform="translate(150, 0)">
    <rect x="5" y="5" width="40" height="40" rx="2" fill="#f5576c"/>
    <rect x="12" y="0" width="26" height="20" rx="2" fill="#f5576c"/>
    <circle cx="20" cy="10" r="2" fill="#ffffff"/>
    <circle cx="30" cy="10" r="2" fill="#ffffff"/>
    <circle cx="20" cy="10" r="1" fill="#f5576c"/>
    <circle cx="30" cy="10" r="1" fill="#f5576c"/>
    <rect x="10" y="20" width="30" height="20" rx="1" fill="#ffffff" opacity="0.9"/>
    <line x1="10" y1="26" x2="40" y2="26" stroke="#ffffff" stroke-width="1"/>
    <line x1="15" y1="20" x2="15" y2="40" stroke="#ffffff" stroke-width="1"/>
    <line x1="20" y1="20" x2="20" y2="40" stroke="#ffffff" stroke-width="1"/>
    <line x1="25" y1="20" x2="25" y2="40" stroke="#ffffff" stroke-width="1"/>
    <circle cx="15" cy="32" r="1" fill="#ffffff"/>
    <circle cx="20" cy="32" r="1" fill="#ffffff"/>
    <circle cx="25" cy="35" r="1" fill="#ffffff"/>
    <rect x="0" y="18" width="6" height="22" rx="1" fill="#f5576c" transform="rotate(-2 3 29)"/>
    <rect x="44" y="18" width="6" height="22" rx="1" fill="#f5576c" transform="rotate(2 47 29)"/>
    <rect x="12" y="40" width="10" height="10" rx="1" fill="#f5576c"/>
    <rect x="28" y="40" width="10" height="10" rx="1" fill="#f5576c"/>
  </g>
</svg>
