<svg xmlns="http://www.w3.org/2000/svg" viewBox="0 0 200 50" style="image-rendering: pixelated;">
  <!-- Frame 1: Idle (0-50px) -->
  <g id="frame-idle">
    <rect x="5" y="5" width="40" height="40" rx="2" fill="#667eea"/>
    <rect x="12" y="0" width="26" height="20" rx="2" fill="#667eea"/>
    <circle cx="20" cy="10" r="2" fill="#ffffff"/>
    <circle cx="30" cy="10" r="2" fill="#ffffff"/>
    <circle cx="20" cy="10" r="1" fill="#667eea"/>
    <circle cx="30" cy="10" r="1" fill="#667eea"/>
    <path d="M10 22 L25 28 L40 22 L40 38 L10 38 Z" fill="#ffffff" opacity="0.9"/>
    <path d="M10 22 L25 28 L40 22" stroke="#ffffff" stroke-width="1.5" fill="none"/>
    <rect x="0" y="18" width="6" height="22" rx="1" fill="#667eea"/>
    <rect x="44" y="18" width="6" height="22" rx="1" fill="#667eea"/>
    <rect x="12" y="40" width="10" height="10" rx="1" fill="#667eea"/>
    <rect x="28" y="40" width="10" height="10" rx="1" fill="#667eea"/>
  </g>
  
  <!-- Frame 2: Walk 1 (50-100px) -->
  <g id="frame-walk1" transform="translate(50, 0)">
    <rect x="5" y="5" width="40" height="40" rx="2" fill="#667eea"/>
    <rect x="12" y="0" width="26" height="20" rx="2" fill="#667eea"/>
    <circle cx="20" cy="10" r="2" fill="#ffffff"/>
    <circle cx="30" cy="10" r="2" fill="#ffffff"/>
    <circle cx="20" cy="10" r="1" fill="#667eea"/>
    <circle cx="30" cy="10" r="1" fill="#667eea"/>
    <path d="M10 22 L25 28 L40 22 L40 38 L10 38 Z" fill="#ffffff" opacity="0.9"/>
    <path d="M10 22 L25 28 L40 22" stroke="#ffffff" stroke-width="1.5" fill="none"/>
    <rect x="0" y="18" width="6" height="22" rx="1" fill="#667eea" transform="rotate(-8 3 29)"/>
    <rect x="44" y="18" width="6" height="22" rx="1" fill="#667eea" transform="rotate(8 47 29)"/>
    <rect x="12" y="40" width="10" height="10" rx="1" fill="#667eea"/>
    <rect x="28" y="40" width="10" height="10" rx="1" fill="#667eea"/>
  </g>
  
  <!-- Frame 3: Walk 2 (100-150px) -->
  <g id="frame-walk2" transform="translate(100, 0)">
    <rect x="5" y="3" width="40" height="40" rx="2" fill="#667eea"/>
    <rect x="12" y="0" width="26" height="20" rx="2" fill="#667eea"/>
    <circle cx="20" cy="10" r="2" fill="#ffffff"/>
    <circle cx="30" cy="10" r="2" fill="#ffffff"/>
    <circle cx="20" cy="10" r="1" fill="#667eea"/>
    <circle cx="30" cy="10" r="1" fill="#667eea"/>
    <path d="M10 22 L25 28 L40 22 L40 38 L10 38 Z" fill="#ffffff" opacity="0.9"/>
    <path d="M10 22 L25 28 L40 22" stroke="#ffffff" stroke-width="1.5" fill="none"/>
    <rect x="0" y="18" width="6" height="22" rx="1" fill="#667eea" transform="rotate(8 3 29)"/>
    <rect x="44" y="18" width="6" height="22" rx="1" fill="#667eea" transform="rotate(-8 47 29)"/>
    <rect x="12" y="40" width="10" height="10" rx="1" fill="#667eea"/>
    <rect x="28" y="40" width="10" height="10" rx="1" fill="#667eea"/>
  </g>
  
  <!-- Frame 4: Idle 2 (150-200px) -->
  <g id="frame-idle2" transform="translate(150, 0)">
    <rect x="5" y="5" width="40" height="40" rx="2" fill="#667eea"/>
    <rect x="12" y="0" width="26" height="20" rx="2" fill="#667eea"/>
    <circle cx="20" cy="10" r="2" fill="#ffffff"/>
    <circle cx="30" cy="10" r="2" fill="#ffffff"/>
    <circle cx="20" cy="10" r="1" fill="#667eea"/>
    <circle cx="30" cy="10" r="1" fill="#667eea"/>
    <path d="M10 22 L25 28 L40 22 L40 38 L10 38 Z" fill="#ffffff" opacity="0.9"/>
    <path d="M10 22 L25 28 L40 22" stroke="#ffffff" stroke-width="1.5" fill="none"/>
    <rect x="0" y="18" width="6" height="22" rx="1" fill="#667eea" transform="rotate(-2 3 29)"/>
    <rect x="44" y="18" width="6" height="22" rx="1" fill="#667eea" transform="rotate(2 47 29)"/>
    <rect x="12" y="40" width="10" height="10" rx="1" fill="#667eea"/>
    <rect x="28" y="40" width="10" height="10" rx="1" fill="#667eea"/>
  </g>
</svg>
